# xmcd
#
# Track frame offsets:
#	150
#	18750
#	34660
#	46910
#	62782
#	80237
#	92207
#	104857
#	119865
#	160460
#	179002
#	196012
#	211075
#
# Disc length: 2906 seconds
# Revision: 1
# Processed by: cddbd v1.5.2PL0 Copyright (c) Steve Scherf et al.
# Submitted via: dBpowerAMP V12.0
#
DISCID=bb0b580d
DTITLE=Cub Koda - Live at B.L.U.E.S. 1982
DYEAR=1998
DGENRE=Blues
TTITLE0=Highway 49
TTITLE1=You Can't Sit Down
TTITLE2=I Have a Little Girl
TTITLE3=Hound Dog's Crawl
TTITLE4=Take Five
TTITLE5=Comin' Round the Mountain
TTITLE6=Courtin in a Cadillac
TTITLE7=Flying Saucer Boogie
TTITLE8=Chicago Daily Blues
TTITLE9=The Hillbilly Blues
TTITLE10=The Time Has Come
TTITLE11=Kitchen Sink Boogie
TTITLE12=Eddie's Boogie
EXTD=
EXTT0=
EXTT1=
EXTT2=
EXTT3=
EXTT4=
EXTT5=
EXTT6=
EXTT7=
EXTT8=
EXTT9=
EXTT10=
EXTT11=
EXTT12=
PLAYORDER=
